<?xml version="1.0" standalone="no"?>
<!DOCTYPE svg PUBLIC "-//W3C//DTD SVG 20010904//EN"
 "http://www.w3.org/TR/2001/REC-SVG-20010904/DTD/svg10.dtd">
<svg version="1.0" xmlns="http://www.w3.org/2000/svg"
 width="95.000000pt" height="133.000000pt" viewBox="0 0 95.000000 133.000000"
 preserveAspectRatio="xMidYMid meet">

<g transform="translate(0.000000,133.000000) scale(0.100000,-0.100000)"
fill="#000000" stroke="none">
<path d="M606 969 c-23 -18 -26 -27 -26 -85 0 -35 3 -64 6 -64 3 0 17 10 29
22 18 17 21 27 14 40 -5 10 -6 18 -2 18 4 0 1 5 -7 10 -10 6 -11 10 -3 10 8 0
11 9 9 23 -2 12 1 28 6 35 15 18 4 15 -26 -9z"/>
</g>
</svg>
