<?xml version="1.0" standalone="no"?>
<!DOCTYPE svg PUBLIC "-//W3C//DTD SVG 20010904//EN"
 "http://www.w3.org/TR/2001/REC-SVG-20010904/DTD/svg10.dtd">
<svg version="1.0" xmlns="http://www.w3.org/2000/svg"
 width="48.000000pt" height="48.000000pt" viewBox="0 0 48.000000 48.000000"
 preserveAspectRatio="xMidYMid meet">

<g transform="translate(0.000000,48.000000) scale(0.100000,-0.100000)"
fill="#64ffda" stroke="none">
<path d="M16 464 c-24 -23 -24 -425 0 -448 23 -24 425 -24 448 0 24 23 24 425
0 448 -23 24 -425 24 -448 0z m398 -210 c9 -3 16 -14 16 -24 0 -14 -8 -17 -37
-16 -27 1 -38 -3 -41 -16 -2 -9 5 -19 17 -23 65 -20 89 -77 50 -116 -29 -29
-113 -24 -117 7 -3 18 2 21 40 20 55 -1 56 17 3 47 -34 19 -40 28 -43 60 -3
34 0 39 30 52 36 16 58 18 82 9z m-134 -24 c0 -16 -7 -20 -30 -20 l-30 0 0
-85 c0 -84 0 -85 -25 -85 -25 0 -25 1 -25 85 l0 85 -30 0 c-23 0 -30 4 -30 20
0 18 7 20 85 20 78 0 85 -2 85 -20z"/>
</g>
</svg>
